<svg xmlns="http://www.w3.org/2000/svg"  viewBox="0 0 48 48" width="144px" height="144px"><polygon fill="#fadb00" points="14,18 8,28 14,30 18,21"/><circle cx="10" cy="32" r="3" fill="#3ddab4"/><polygon fill="#fadb00" points="34,18 40,28 34,30 30,21"/><circle cx="38" cy="32" r="3" fill="#3ddab4"/><rect width="5" height="7.616" x="8" y="25.692" fill="#f5bc00" transform="rotate(-66.801 10.5 29.501)"/><rect width="7.616" height="5" x="33.692" y="27" fill="#f5bc00" transform="rotate(-23.199 37.502 29.502)"/><path fill="#00b569" d="M38,29c-1.657,0-3,1.343-3,3c0,0.422,0.089,0.822,0.246,1.186l5.514-2.363 C40.302,29.752,39.239,29,38,29z"/><path fill="#00b569" d="M10,29c-1.239,0-2.302,0.752-2.759,1.823l5.514,2.363C12.911,32.822,13,32.422,13,32 C13,30.343,11.657,29,10,29z"/><path fill="#fadb00" d="M37.742,42.986c0,0-3.742,3.014-13.596,3.014C14,46,10.261,42.935,10.261,42.935L16,21h16 L37.742,42.986z"/><path fill="#f5bc00" d="M22,45.92c0.669,0.047,1.365,0.08,2.117,0.08c0.665,0,1.284-0.028,1.883-0.067V21h-4V45.92z"/><ellipse cx="24" cy="18" fill="#f5bc00" rx="11" ry="6"/><ellipse cx="24" cy="11" fill="#3ddab4" rx="10" ry="7"/><path fill="#2100c4" d="M22,10.597l-0.053,0.152c-0.02,0.06-0.51,1.45-1.947,1.45s-1.928-1.39-1.947-1.45L18,10.597 l0.053-0.152c0.02-0.06,0.51-1.45,1.947-1.45c1.428,0,1.928,1.386,1.947,1.446L22,10.597z"/><path fill="#2100c4" d="M30,10.497l-0.049,0.143C29.932,10.696,29.472,12,28.124,12c-1.348,0-1.808-1.304-1.826-1.36 l-0.049-0.143l0.049-0.143c0.018-0.056,0.478-1.36,1.826-1.36c1.339,0,1.808,1.3,1.826,1.356L30,10.497z"/><path fill="#3ddab4" d="M43.018,4L31.017,6l1.955,8C37.972,14,43.018,10,43.018,4z"/><path fill="#3ddab4" d="M15.051,14l1.955-8L5.005,4C5.005,10,10.051,14,15.051,14z"/><g><path fill="#00b569" d="M31.021,6.019L32.972,14c0.018,0,0.036-0.003,0.055-0.003C33.644,13.088,34,12.074,34,11 C34,9.05,32.859,7.288,31.021,6.019z"/><path fill="#00b569" d="M14,11c0,1.074,0.355,2.087,0.973,2.996c0.026,0,0.052,0.004,0.079,0.004l1.955-7.999 C15.153,7.272,14,9.041,14,11z"/></g></svg>